<svg width="38" height="38" viewBox="0 0 38 38" fill="none" xmlns="http://www.w3.org/2000/svg">
<path fill-rule="evenodd" clip-rule="evenodd" d="M2.9355 2.55431L2.91056 2.56975L2.88681 2.58637L2.86306 2.603L2.8405 2.61963L2.81794 2.63744L2.79656 2.65525L2.77519 2.67425L2.75381 2.69325L2.73244 2.71225L2.71225 2.73244L2.69325 2.75381L2.67425 2.77519L2.65525 2.79656L2.63744 2.81794L2.61963 2.8405L2.603 2.86306L2.58637 2.88681L2.56975 2.91056L2.55431 2.93431L2.54006 2.95925L2.52581 2.98419L2.51156 3.00912L2.4985 3.03525L2.48544 3.06019L2.47356 3.0875L2.46287 3.11362L2.45219 3.14094L2.44269 3.16825L2.43319 3.19556L2.42369 3.22287L2.41656 3.25137L2.40825 3.27988L2.40231 3.30838L2.39637 3.33806L2.39044 3.36656L2.38687 3.39625L2.38331 3.42594L2.37975 3.45563L2.37738 3.4865L2.37619 3.51619L2.375 3.54706V3.5625V34.4375C2.375 35.093 2.907 35.625 3.5625 35.625H34.4375C35.093 35.625 35.625 35.093 35.625 34.4375V3.5625V3.53163L35.6238 3.50194L35.6214 3.47106L35.6191 3.44138L35.6155 3.41169L35.6108 3.382L35.606 3.35231L35.6012 3.32263L35.5941 3.29412L35.5882 3.26562L35.5799 3.23713L35.5716 3.20981L35.5621 3.18131L35.5526 3.154L35.5431 3.12669L35.5312 3.10056L35.5205 3.07325L35.5074 3.04712L35.4956 3.02219L35.4813 2.99606L35.4683 2.97113L35.4528 2.94619L35.4374 2.92244L35.4219 2.89869L35.4065 2.87494L35.3887 2.85237L35.3721 2.82981L35.3542 2.80725L35.3353 2.78587L35.3162 2.7645L35.2973 2.74312L35.2771 2.72294L35.2569 2.70275L35.2355 2.68375L35.2141 2.66475L35.1927 2.64575L35.1702 2.62794L35.1476 2.61131L35.1203 2.59112L35.0977 2.5745L35.074 2.55906L35.0491 2.54481L35.0253 2.53056L35.0004 2.51631L34.9754 2.50325L34.9493 2.49019L34.9232 2.47831L34.8971 2.46763L34.8709 2.45694L34.8436 2.44625L34.8163 2.43675L34.789 2.42725L34.7605 2.41894L34.732 2.41181L34.7035 2.40469L34.675 2.39875L34.6453 2.39281L34.6144 2.38806L34.5848 2.3845L34.5539 2.38094L34.523 2.37856L34.4981 2.37619L34.4684 2.375H34.4529C34.4482 2.375 34.4422 2.375 34.4375 2.375H3.5625C3.33213 2.375 3.11719 2.44031 2.9355 2.55431ZM33.25 11.875V33.25H4.75V11.875H33.25ZM19 15.4375C16.5086 15.4375 14.1182 16.4588 12.1564 17.7151C9.32544 19.5273 7.40644 21.7942 7.40644 21.7942C7.03119 22.2371 7.03119 22.8879 7.40644 23.3308C7.40644 23.3308 9.32544 25.5978 12.1564 27.4099C14.1182 28.6663 16.5086 29.6875 19 29.6875C21.4914 29.6875 23.8818 28.6663 25.8436 27.4099C28.6746 25.5978 30.5936 23.3308 30.5936 23.3308C30.9688 22.8879 30.9688 22.2371 30.5936 21.7942C30.5936 21.7942 28.6746 19.5273 25.8436 17.7151C23.8818 16.4588 21.4914 15.4375 19 15.4375ZM19 17.8125C21.0306 17.8125 22.9639 18.6912 24.5634 19.7149C26.0989 20.6981 27.3339 21.831 28.0618 22.5625C27.3339 23.294 26.0989 24.4269 24.5634 25.4101C22.9639 26.4338 21.0306 27.3125 19 27.3125C16.9694 27.3125 15.0361 26.4338 13.4366 25.4101C11.9011 24.4269 10.6661 23.294 9.93819 22.5625C10.6661 21.831 11.9011 20.6981 13.4366 19.7149C15.0361 18.6912 16.9694 17.8125 19 17.8125ZM19 19C17.0335 19 15.4375 20.596 15.4375 22.5625C15.4375 24.529 17.0335 26.125 19 26.125C20.9665 26.125 22.5625 24.529 22.5625 22.5625C22.5625 20.596 20.9665 19 19 19ZM11.875 8.3125H13.0625C13.718 8.3125 14.25 7.7805 14.25 7.125C14.25 6.4695 13.718 5.9375 13.0625 5.9375H11.875C11.2195 5.9375 10.6875 6.4695 10.6875 7.125C10.6875 7.7805 11.2195 8.3125 11.875 8.3125ZM7.125 8.3125H8.3125C8.968 8.3125 9.5 7.7805 9.5 7.125C9.5 6.4695 8.968 5.9375 8.3125 5.9375H7.125C6.4695 5.9375 5.9375 6.4695 5.9375 7.125C5.9375 7.7805 6.4695 8.3125 7.125 8.3125Z" fill="#01452C"/>
</svg>
