<svg width="38" height="38" viewBox="0 0 38 38" fill="none" xmlns="http://www.w3.org/2000/svg">
<path d="M20.1876 36.8125H17.8126C16.9374 36.8188 16.0904 36.5027 15.4334 35.9245C14.7763 35.3463 14.3551 34.5464 14.2501 33.6775C13.4532 33.4256 12.6786 33.1079 11.9345 32.7275C11.2454 33.2723 10.3794 33.5434 9.50262 33.4886C8.62589 33.4338 7.80032 33.057 7.18447 32.4306L5.56947 30.7562C4.94306 30.1404 4.56628 29.3148 4.51148 28.4381C4.45669 27.5613 4.72775 26.6953 5.27259 26.0062C4.89521 25.2812 4.5775 24.5266 4.32259 23.75C3.45366 23.645 2.6538 23.2238 2.07558 22.5667C1.49737 21.9096 1.18127 21.0627 1.18759 20.1875V17.8125C1.18127 16.9372 1.49737 16.0903 2.07558 15.4333C2.6538 14.7762 3.45366 14.355 4.32259 14.25C4.57445 13.4531 4.89221 12.6785 5.27259 11.9343C4.72775 11.2453 4.45669 10.3792 4.51148 9.5025C4.56628 8.62577 4.94306 7.8002 5.56947 7.18435L7.24384 5.56935C7.85969 4.94294 8.68527 4.56616 9.562 4.51136C10.4387 4.45657 11.3048 4.72762 11.9938 5.27247C12.7189 4.89509 13.4735 4.57737 14.2501 4.32247C14.3551 3.45354 14.7763 2.65368 15.4334 2.07546C16.0904 1.49725 16.9374 1.18115 17.8126 1.18747H20.1876C21.0628 1.18115 21.9097 1.49725 22.5668 2.07546C23.2239 2.65368 23.6451 3.45354 23.7501 4.32247C24.547 4.57433 25.3215 4.89209 26.0657 5.27247C26.7548 4.72762 27.6208 4.45657 28.4976 4.51136C29.3743 4.56616 30.1999 4.94294 30.8157 5.56935L32.4307 7.24372C33.0571 7.85957 33.4339 8.68514 33.4887 9.56187C33.5435 10.4386 33.2724 11.3047 32.7276 11.9937C33.108 12.7379 33.4257 13.5124 33.6776 14.3093C34.5364 14.4131 35.3281 14.8258 35.9049 15.4704C36.4818 16.115 36.8044 16.9475 36.8126 17.8125V20.1875C36.8189 21.0627 36.5028 21.9096 35.9246 22.5667C35.3464 23.2238 34.5465 23.645 33.6776 23.75C33.4257 24.5469 33.108 25.3214 32.7276 26.0656C33.2724 26.7547 33.5435 27.6207 33.4887 28.4974C33.4339 29.3742 33.0571 30.1997 32.4307 30.8156L30.7563 32.4306C30.1405 33.057 29.3149 33.4338 28.4382 33.4886C27.5615 33.5434 26.6954 33.2723 26.0063 32.7275C25.2622 33.1079 24.4876 33.4256 23.6907 33.6775C23.587 34.5363 23.1743 35.328 22.5297 35.9048C21.8851 36.4817 21.0526 36.8043 20.1876 36.8125ZM11.7682 30.0793C11.9818 30.0757 12.192 30.1334 12.3738 30.2456C13.4238 30.8631 14.555 31.3308 15.7345 31.635C15.9957 31.7023 16.2263 31.8566 16.3882 32.0724C16.5501 32.2883 16.6336 32.5528 16.6251 32.8225V33.25C16.6251 33.5649 16.7502 33.867 16.9729 34.0897C17.1956 34.3124 17.4976 34.4375 17.8126 34.4375H20.1876C20.5025 34.4375 20.8046 34.3124 21.0273 34.0897C21.25 33.867 21.3751 33.5649 21.3751 33.25V32.7868C21.3666 32.5172 21.4501 32.2526 21.612 32.0368C21.7739 31.8209 22.0044 31.6667 22.2657 31.5993C23.4452 31.2952 24.5764 30.8275 25.6263 30.21C25.852 30.0771 26.1152 30.0225 26.3751 30.0547C26.6349 30.0869 26.8769 30.2041 27.0632 30.3881L27.3957 30.7206C27.5061 30.8319 27.6375 30.9202 27.7822 30.9805C27.9269 31.0408 28.0821 31.0719 28.2388 31.0719C28.3956 31.0719 28.5508 31.0408 28.6955 30.9805C28.8402 30.9202 28.9716 30.8319 29.082 30.7206L30.7563 29.0462C30.8676 28.9358 30.956 28.8045 31.0163 28.6598C31.0766 28.5151 31.1076 28.3599 31.1076 28.2031C31.1076 28.0463 31.0766 27.8911 31.0163 27.7464C30.956 27.6017 30.8676 27.4704 30.7563 27.36L30.4238 27.0275C30.2399 26.8411 30.1227 26.5992 30.0905 26.3393C30.0582 26.0795 30.1128 25.8162 30.2457 25.5906C30.8633 24.5406 31.3309 23.4095 31.6351 22.23C31.7024 21.9687 31.8567 21.7381 32.0725 21.5763C32.2884 21.4144 32.5529 21.3308 32.8226 21.3393H33.2501C33.565 21.3393 33.8671 21.2142 34.0898 20.9915C34.3125 20.7688 34.4376 20.4668 34.4376 20.1518V17.8125C34.4376 17.4975 34.3125 17.1955 34.0898 16.9728C33.8671 16.7501 33.565 16.625 33.2501 16.625H32.787C32.5173 16.6335 32.2528 16.5499 32.0369 16.3881C31.8211 16.2262 31.6668 15.9956 31.5995 15.7343C31.2953 14.5548 30.8276 13.4237 30.2101 12.3737C30.0772 12.1481 30.0226 11.8849 30.0548 11.625C30.0871 11.3651 30.2043 11.1232 30.3882 10.9368L30.7207 10.6043C30.832 10.494 30.9204 10.3626 30.9807 10.2179C31.0409 10.0732 31.072 9.91798 31.072 9.76122C31.072 9.60446 31.0409 9.44924 30.9807 9.30454C30.9204 9.15983 30.832 9.02849 30.7207 8.9181L29.082 7.24372C28.9716 7.13242 28.8402 7.04408 28.6955 6.98379C28.5508 6.9235 28.3956 6.89246 28.2388 6.89246C28.0821 6.89246 27.9269 6.9235 27.7822 6.98379C27.6375 7.04408 27.5061 7.13242 27.3957 7.24372L27.0632 7.57622C26.8769 7.76018 26.6349 7.87738 26.3751 7.9096C26.1152 7.94181 25.852 7.88723 25.6263 7.75435C24.5764 7.13679 23.4452 6.66914 22.2657 6.36497C22.0044 6.29765 21.7739 6.14337 21.612 5.92753C21.4501 5.71168 21.3666 5.44714 21.3751 5.17747V4.74997C21.3751 4.43503 21.25 4.13298 21.0273 3.91028C20.8046 3.68758 20.5025 3.56247 20.1876 3.56247H17.8126C17.4976 3.56247 17.1956 3.68758 16.9729 3.91028C16.7502 4.13298 16.6251 4.43503 16.6251 4.74997V5.2131C16.6336 5.48277 16.5501 5.74731 16.3882 5.96315C16.2263 6.179 15.9957 6.33328 15.7345 6.4006C14.555 6.70476 13.4238 7.17242 12.3738 7.78997C12.1482 7.92286 11.885 7.97744 11.6251 7.94522C11.3653 7.91301 11.1233 7.7958 10.937 7.61185L10.6045 7.24372C10.4941 7.13242 10.3627 7.04408 10.218 6.98379C10.0733 6.9235 9.91811 6.89246 9.76134 6.89246C9.60458 6.89246 9.44937 6.9235 9.30466 6.98379C9.15995 7.04408 9.02861 7.13242 8.91822 7.24372L7.24384 8.9181C7.13254 9.02849 7.0442 9.15983 6.98391 9.30454C6.92362 9.44924 6.89258 9.60446 6.89258 9.76122C6.89258 9.91798 6.92362 10.0732 6.98391 10.2179C7.0442 10.3626 7.13254 10.494 7.24384 10.6043L7.57634 10.9368C7.7603 11.1232 7.87751 11.3651 7.90972 11.625C7.94194 11.8849 7.88735 12.1481 7.75447 12.3737C7.13692 13.4237 6.66926 14.5548 6.36509 15.7343C6.29778 15.9956 6.14349 16.2262 5.92765 16.3881C5.7118 16.5499 5.44726 16.6335 5.17759 16.625H4.75009C4.43515 16.625 4.1331 16.7501 3.9104 16.9728C3.6877 17.1955 3.56259 17.4975 3.56259 17.8125V20.1875C3.56259 20.5024 3.6877 20.8045 3.9104 21.0272C4.1331 21.2499 4.43515 21.375 4.75009 21.375H5.21322C5.48289 21.3664 5.74743 21.45 5.96327 21.6119C6.17912 21.7738 6.3334 22.0043 6.40072 22.2656C6.70489 23.4451 7.17254 24.5763 7.79009 25.6262C7.92298 25.8519 7.97756 26.1151 7.94535 26.3749C7.91313 26.6348 7.79593 26.8767 7.61197 27.0631L7.27947 27.3956C7.16817 27.506 7.07982 27.6373 7.01953 27.782C6.95925 27.9267 6.92821 28.082 6.92821 28.2387C6.92821 28.3955 6.95925 28.5507 7.01953 28.6954C7.07982 28.8401 7.16817 28.9715 7.27947 29.0818L8.91822 30.7562C9.02861 30.8675 9.15995 30.9559 9.30466 31.0162C9.44937 31.0764 9.60458 31.1075 9.76134 31.1075C9.91811 31.1075 10.0733 31.0764 10.218 31.0162C10.3627 30.9559 10.4941 30.8675 10.6045 30.7562L10.937 30.4237C11.1582 30.2043 11.4567 30.0807 11.7682 30.0793Z" fill="#01452C"/>
<path d="M19 27.3125C17.3559 27.3125 15.7488 26.825 14.3818 25.9116C13.0148 24.9982 11.9494 23.7 11.3203 22.1811C10.6911 20.6621 10.5265 18.9908 10.8472 17.3783C11.168 15.7658 11.9597 14.2847 13.1222 13.1222C14.2847 11.9597 15.7658 11.168 17.3783 10.8472C18.9908 10.5265 20.6621 10.6911 22.1811 11.3203C23.7 11.9494 24.9982 13.0148 25.9116 14.3818C26.825 15.7488 27.3125 17.3559 27.3125 19C27.3125 21.2046 26.4367 23.3189 24.8778 24.8778C23.3189 26.4367 21.2046 27.3125 19 27.3125ZM19 13.0625C17.8257 13.0625 16.6777 13.4107 15.7013 14.0632C14.7249 14.7156 13.9639 15.6429 13.5145 16.7278C13.0651 17.8128 12.9475 19.0066 13.1766 20.1584C13.4057 21.3101 13.9712 22.3681 14.8016 23.1985C15.6319 24.0288 16.6899 24.5943 17.8417 24.8234C18.9934 25.0525 20.1873 24.9349 21.2722 24.4855C22.3571 24.0361 23.2844 23.2751 23.9369 22.2987C24.5893 21.3223 24.9375 20.1743 24.9375 19C24.9375 17.4253 24.3119 15.9151 23.1985 14.8016C22.085 13.6881 20.5747 13.0625 19 13.0625Z" fill="#01452C"/>
</svg>
