<svg width="24" height="24" viewBox="0 0 24 24" fill="none" xmlns="http://www.w3.org/2000/svg">
<path d="M17.3013 13.3494C17.039 13.3483 16.7876 13.2442 16.6013 13.0594C16.4151 12.8721 16.3105 12.6186 16.3105 12.3544C16.3105 12.0902 16.4151 11.8368 16.6013 11.6494L18.7213 9.52943C18.9073 9.34368 19.0548 9.12311 19.1554 8.88031C19.2561 8.63751 19.3079 8.37726 19.3079 8.11443C19.3079 7.8516 19.2561 7.59134 19.1554 7.34855C19.0548 7.10575 18.9073 6.88517 18.7213 6.69943L17.3013 5.27943C16.9188 4.91795 16.4126 4.71655 15.8863 4.71655C15.3601 4.71655 14.8538 4.91795 14.4713 5.27943L12.3513 7.39943C12.1596 7.5528 11.9182 7.6303 11.6731 7.61717C11.4279 7.60403 11.1962 7.50119 11.022 7.32822C10.8478 7.15525 10.7433 6.92424 10.7284 6.6792C10.7135 6.43416 10.7893 6.1922 10.9413 5.99943L13.0613 3.87943C13.8239 3.15196 14.8374 2.74609 15.8913 2.74609C16.9452 2.74609 17.9587 3.15196 18.7213 3.87943L20.1313 5.28943C20.5032 5.66092 20.7982 6.10208 20.9995 6.58767C21.2008 7.07326 21.3045 7.59377 21.3045 8.11943C21.3045 8.64509 21.2008 9.1656 20.9995 9.65119C20.7982 10.1368 20.5032 10.5779 20.1313 10.9494L18.0013 13.0594C17.815 13.2442 17.5636 13.3483 17.3013 13.3494Z" fill="#1C1C1C"/>
<path d="M8.10846 21.2996C7.58302 21.3 7.06264 21.1969 6.57706 20.9961C6.09148 20.7954 5.65021 20.5009 5.27846 20.1296L3.86846 18.7196C3.49655 18.3481 3.20152 17.9069 3.00022 17.4214C2.79892 16.9358 2.69531 16.4153 2.69531 15.8896C2.69531 15.3639 2.79892 14.8434 3.00022 14.3578C3.20152 13.8722 3.49655 13.4311 3.86846 13.0596L5.99846 10.9396C6.19123 10.7876 6.43319 10.7118 6.67823 10.7267C6.92327 10.7416 7.15428 10.8461 7.32725 11.0203C7.50022 11.1945 7.60306 11.4262 7.6162 11.6714C7.62933 11.9165 7.55183 12.1579 7.39846 12.3496L5.27846 14.4696C5.09251 14.6553 4.94499 14.8759 4.84434 15.1187C4.74369 15.3615 4.69189 15.6218 4.69189 15.8846C4.69189 16.1474 4.74369 16.4077 4.84434 16.6505C4.94499 16.8933 5.09251 17.1139 5.27846 17.2996L6.69846 18.7196C7.08091 19.0811 7.58721 19.2825 8.11346 19.2825C8.63971 19.2825 9.146 19.0811 9.52846 18.7196L11.6485 16.5996C11.7357 16.4889 11.8454 16.398 11.9703 16.3326C12.0952 16.2673 12.2324 16.2291 12.3731 16.2206C12.5138 16.2121 12.6547 16.2334 12.7866 16.2831C12.9184 16.3328 13.0383 16.4098 13.1383 16.5091C13.2383 16.6084 13.3162 16.7278 13.3669 16.8593C13.4175 16.9908 13.4398 17.1315 13.4323 17.2723C13.4247 17.413 13.3875 17.5505 13.3231 17.6759C13.2587 17.8012 13.1685 17.9115 13.0585 17.9996L10.9385 20.1196C10.5675 20.4927 10.1266 20.789 9.64101 20.9915C9.15539 21.194 8.6346 21.2987 8.10846 21.2996Z" fill="#1C1C1C"/>
<path d="M8.8183 16.1795C8.68669 16.1803 8.55623 16.1551 8.43439 16.1053C8.31255 16.0555 8.20174 15.9822 8.1083 15.8895C8.01457 15.7966 7.94018 15.686 7.88941 15.5641C7.83864 15.4422 7.8125 15.3115 7.8125 15.1795C7.8125 15.0475 7.83864 14.9168 7.88941 14.7949C7.94018 14.6731 8.01457 14.5625 8.1083 14.4695L14.4783 8.10952C14.6657 7.92327 14.9191 7.81873 15.1833 7.81873C15.4475 7.81873 15.7009 7.92327 15.8883 8.10952C15.982 8.20248 16.0564 8.31308 16.1072 8.43494C16.158 8.5568 16.1841 8.68751 16.1841 8.81952C16.1841 8.95153 16.158 9.08224 16.1072 9.20409C16.0564 9.32595 15.982 9.43656 15.8883 9.52952L9.5183 15.8895C9.33204 16.0743 9.08064 16.1784 8.8183 16.1795Z" fill="#1C1C1C"/>
</svg>
