<svg width="38" height="38" viewBox="0 0 38 38" fill="none" xmlns="http://www.w3.org/2000/svg">
<path d="M32.0625 17.8125H29.6875V11.875C29.6875 10.9302 29.3122 10.024 28.6441 9.35593C27.976 8.68783 27.0698 8.3125 26.125 8.3125H20.1875V5.9375C20.1875 4.67772 19.6871 3.46954 18.7963 2.57874C17.9055 1.68795 16.6973 1.1875 15.4375 1.1875C14.1777 1.1875 12.9695 1.68795 12.0787 2.57874C11.1879 3.46954 10.6875 4.67772 10.6875 5.9375V8.3125H4.75C3.80517 8.3125 2.89903 8.68783 2.23093 9.35593C1.56283 10.024 1.1875 10.9302 1.1875 11.875V19C1.1875 19.3149 1.31261 19.617 1.53531 19.8397C1.75801 20.0624 2.06006 20.1875 2.375 20.1875H5.9375C6.56739 20.1875 7.17148 20.4377 7.61688 20.8831C8.06228 21.3285 8.3125 21.9326 8.3125 22.5625C8.3125 23.1924 8.06228 23.7965 7.61688 24.2419C7.17148 24.6873 6.56739 24.9375 5.9375 24.9375H2.375C2.06006 24.9375 1.75801 25.0626 1.53531 25.2853C1.31261 25.508 1.1875 25.8101 1.1875 26.125V33.25C1.1875 34.1948 1.56283 35.101 2.23093 35.7691C2.89903 36.4372 3.80517 36.8125 4.75 36.8125H11.875C12.1899 36.8125 12.492 36.6874 12.7147 36.4647C12.9374 36.242 13.0625 35.9399 13.0625 35.625V32.0625C13.0625 31.4326 13.3127 30.8285 13.7581 30.3831C14.2035 29.9377 14.8076 29.6875 15.4375 29.6875C16.0674 29.6875 16.6715 29.9377 17.1169 30.3831C17.5623 30.8285 17.8125 31.4326 17.8125 32.0625V35.625C17.8125 35.9399 17.9376 36.242 18.1603 36.4647C18.383 36.6874 18.6851 36.8125 19 36.8125H26.125C27.0698 36.8125 27.976 36.4372 28.6441 35.7691C29.3122 35.101 29.6875 34.1948 29.6875 33.25V27.3125H32.0625C33.3223 27.3125 34.5305 26.8121 35.4213 25.9213C36.3121 25.0305 36.8125 23.8223 36.8125 22.5625C36.8125 21.3027 36.3121 20.0945 35.4213 19.2037C34.5305 18.3129 33.3223 17.8125 32.0625 17.8125Z" fill="#01452C"/>
</svg>
