<svg width="15" height="16" viewBox="0 0 15 16" fill="none" xmlns="http://www.w3.org/2000/svg">
<g clip-path="url(#clip0_1036_73)">
<path d="M7.50194 1.4375C3.35937 1.4375 0.00194438 4.16504 0.00194438 7.53125C0.00194438 8.92578 0.584952 10.2031 1.55175 11.2314C1.11523 12.3857 0.207023 13.3643 0.192374 13.376C-0.000985307 13.5811 -0.0537197 13.8799 0.0576084 14.1377C0.168937 14.3955 0.423819 14.5625 0.705069 14.5625C2.50683 14.5625 3.92773 13.8096 4.78026 13.2061C5.62694 13.4727 6.54101 13.625 7.50194 13.625C11.6445 13.625 15.0019 10.8975 15.0019 7.53125C15.0019 4.16504 11.6445 1.4375 7.50194 1.4375ZM7.50194 12.2188C6.71972 12.2188 5.94628 12.0986 5.20507 11.8643L4.54003 11.6533L3.96874 12.0576C3.5498 12.3535 2.97558 12.6846 2.28417 12.9072C2.49804 12.5527 2.70605 12.1543 2.86718 11.7295L3.17773 10.9062L2.57421 10.2676C2.04394 9.70215 1.40819 8.76758 1.40819 7.53125C1.40819 4.94727 4.14159 2.84375 7.50194 2.84375C10.8623 2.84375 13.5957 4.94727 13.5957 7.53125C13.5957 10.1152 10.8623 12.2188 7.50194 12.2188Z" fill="#6F6F6F"/>
</g>
<defs>
<clipPath id="clip0_1036_73">
<rect width="15" height="15" fill="white" transform="translate(0 0.5)"/>
</clipPath>
</defs>
</svg>
