<svg width="38" height="38" viewBox="0 0 38 38" fill="none" xmlns="http://www.w3.org/2000/svg">
<g clip-path="url(#clip0_1236_32)">
<path d="M13.0625 13.0625V20.743C13.0654 21.867 13.386 22.9672 13.9872 23.9169C14.5883 24.8666 15.4457 25.627 16.4603 26.1105L19 27.3125L21.5397 26.1099C22.5543 25.6264 23.4115 24.8661 24.0127 23.9165C24.6138 22.967 24.9344 21.8669 24.9375 20.743V13.0625H13.0625ZM22.5625 20.743C22.5606 21.4172 22.3682 22.0771 22.0075 22.6467C21.6468 23.2163 21.1325 23.6723 20.5238 23.9622L19 24.6835L17.4762 23.9622C16.8675 23.6723 16.3532 23.2163 15.9925 22.6467C15.6318 22.0771 15.4394 21.4172 15.4375 20.743V15.4375H22.5625V20.743Z" fill="#01452C"/>
<path d="M36.1167 20.6792C36.3373 20.4587 36.5123 20.1969 36.6316 19.9088C36.751 19.6207 36.8125 19.3119 36.8125 19C36.8125 18.6881 36.751 18.3793 36.6316 18.0911C36.5123 17.803 36.3373 17.5412 36.1167 17.3207L29.2448 10.4491L32.6892 7.04957C33.1972 7.17545 33.7326 7.13017 34.2122 6.92075C34.6918 6.71133 35.0889 6.34948 35.3419 5.89134C35.5949 5.43319 35.6897 4.90436 35.6114 4.38688C35.5332 3.8694 35.2864 3.39221 34.9093 3.02932C34.5321 2.66643 34.0458 2.43814 33.5257 2.37987C33.0056 2.32159 32.4808 2.43658 32.0327 2.707C31.5846 2.97742 31.2383 3.38815 31.0475 3.87548C30.8567 4.36281 30.832 4.89949 30.9773 5.40227L27.5653 8.76943L20.6792 1.88323C20.4587 1.66266 20.1969 1.48769 19.9088 1.36832C19.6207 1.24894 19.3119 1.1875 19 1.1875C18.6881 1.1875 18.3793 1.24894 18.0911 1.36832C17.803 1.48769 17.5412 1.66266 17.3207 1.88323L10.4491 8.75494L7.04993 5.31012C7.17574 4.80204 7.13035 4.26664 6.92081 3.78699C6.71128 3.30733 6.3493 2.91024 5.89104 2.65731C5.43278 2.40438 4.90386 2.30976 4.38633 2.38812C3.86881 2.46648 3.39161 2.71344 3.02877 3.0907C2.66593 3.46795 2.43773 3.95441 2.37959 4.4746C2.32144 4.99478 2.43659 5.51962 2.70717 5.96768C2.97776 6.41574 3.38864 6.76198 3.8761 6.95268C4.36355 7.14338 4.90031 7.16788 5.4031 7.02238L8.76966 10.4347L1.88323 17.3207C1.66266 17.5412 1.48769 17.803 1.36832 18.0911C1.24894 18.3793 1.1875 18.6881 1.1875 19C1.1875 19.3119 1.24894 19.6207 1.36832 19.9088C1.48769 20.1969 1.66266 20.4587 1.88323 20.6792L8.76943 27.5653L5.4031 30.9776C4.90144 30.8331 4.36614 30.8582 3.88018 31.0489C3.39421 31.2396 2.98472 31.5853 2.71517 32.0323C2.44563 32.4794 2.33107 33.0029 2.38927 33.5217C2.44747 34.0405 2.67517 34.5256 3.03707 34.9018C3.39898 35.2781 3.87488 35.5244 4.39102 35.6027C4.90716 35.681 5.43471 35.5868 5.8919 35.3348C6.34909 35.0828 6.71038 34.687 6.91979 34.2088C7.1292 33.7306 7.17503 33.1967 7.05016 32.6898L10.4494 29.245L17.321 36.1167C17.5415 36.3373 17.8033 36.5123 18.0914 36.6316C18.3795 36.751 18.6883 36.8125 19.0002 36.8125C19.3121 36.8125 19.6209 36.751 19.909 36.6316C20.1972 36.5123 20.459 36.3373 20.6795 36.1167L27.5655 29.2305L30.9776 32.5977C30.8331 33.0995 30.8583 33.6348 31.049 34.1209C31.2398 34.6069 31.5856 35.0165 32.0328 35.286C32.48 35.5556 33.0036 35.6701 33.5225 35.6118C34.0414 35.5535 34.5265 35.3257 34.9028 34.9636C35.279 34.6016 35.5253 34.1255 35.6035 33.6093C35.6817 33.093 35.5874 32.5654 35.3352 32.1082C35.0831 31.651 34.6872 31.2897 34.2088 31.0804C33.7305 30.871 33.1964 30.8254 32.6895 30.9504L29.245 27.5508L36.1167 20.6792ZM19 34.4375L3.56248 19L19 3.56248L34.4375 19L19 34.4375Z" fill="#01452C"/>
</g>
<defs>
<clipPath id="clip0_1236_32">
<rect width="38" height="38" fill="white"/>
</clipPath>
</defs>
</svg>
