<svg width="40" height="42" viewBox="0 0 40 42" fill="none" xmlns="http://www.w3.org/2000/svg">
<g clip-path="url(#clip0_571_655)">
<path d="M24.1912 38.8706C23.6448 39.7037 22.8906 40.3801 22.0031 40.8328C21.2583 41.229 20.4276 41.4361 19.584 41.4361C18.7404 41.4361 17.9097 41.229 17.1649 40.8328C16.6351 40.534 16.1644 40.1409 15.7758 39.673L24.2047 38.8841L24.1912 38.8706ZM24.1238 15.2293C24.0676 15.1709 24 15.1246 23.9252 15.0932C23.8504 15.0619 23.7699 15.0463 23.6888 15.0473C23.6072 15.0462 23.5263 15.0618 23.4509 15.0931C23.3756 15.1244 23.3074 15.1708 23.2505 15.2293L22.5762 15.9036C22.3965 15.7865 22.2083 15.6828 22.0132 15.5934C21.8143 15.5058 21.612 15.4249 21.4097 15.3574V14.346C21.4101 14.265 21.3945 14.1847 21.3636 14.1098C21.3327 14.035 21.2872 13.967 21.2298 13.9099C21.1723 13.8528 21.1041 13.8077 21.0291 13.7772C20.954 13.7467 20.8737 13.7315 20.7927 13.7324H19.5115C19.4312 13.731 19.3514 13.7462 19.2772 13.7769C19.2029 13.8076 19.1358 13.8533 19.0799 13.911C19.0199 13.9662 18.9723 14.0335 18.9403 14.1085C18.9083 14.1835 18.8927 14.2645 18.8945 14.346V15.2833C18.6835 15.333 18.4763 15.3972 18.2741 15.4754C18.0766 15.5508 17.884 15.6387 17.6976 15.7384L16.9626 15.0135C16.9088 14.9536 16.8427 14.9061 16.7688 14.8741C16.6949 14.8421 16.6149 14.8264 16.5344 14.8281C16.4526 14.8273 16.3714 14.8433 16.296 14.8752C16.2206 14.9071 16.1525 14.9542 16.0961 15.0135L15.206 15.8969C15.1465 15.9524 15.0992 16.0198 15.0673 16.0947C15.0353 16.1696 15.0194 16.2504 15.0206 16.3318C15.0194 16.4137 15.0352 16.495 15.0672 16.5705C15.0991 16.646 15.1464 16.7139 15.206 16.7701L15.8803 17.4444C15.7655 17.625 15.663 17.8131 15.5735 18.0075C15.4841 18.2043 15.4053 18.4057 15.3375 18.611H14.3261C14.244 18.6073 14.162 18.6203 14.085 18.6492C14.0081 18.678 13.9377 18.7221 13.8782 18.7787C13.8187 18.8354 13.7713 18.9035 13.7387 18.979C13.7062 19.0544 13.6892 19.1357 13.6888 19.2179V20.499C13.6886 20.5792 13.7043 20.6586 13.735 20.7327C13.7657 20.8068 13.8107 20.874 13.8675 20.9306C13.9236 20.9904 13.9915 21.0378 14.067 21.0698C14.1425 21.1017 14.2239 21.1175 14.3058 21.116H15.2431C15.2898 21.3278 15.3541 21.5353 15.4353 21.7364C15.5105 21.9373 15.5984 22.1332 15.6983 22.3231L14.97 23.0513C14.9106 23.1055 14.8634 23.1717 14.8315 23.2455C14.7995 23.3193 14.7835 23.3991 14.7846 23.4795C14.7846 23.5612 14.801 23.6422 14.8328 23.7175C14.8647 23.7928 14.9113 23.8609 14.97 23.9178L15.8702 24.8281C15.9894 24.9388 16.1459 25.0003 16.3085 25.0003C16.4711 25.0003 16.6277 24.9388 16.7468 24.8281L17.4211 24.1538C17.6025 24.2693 17.7917 24.3718 17.9876 24.4606C18.1841 24.5506 18.3856 24.6294 18.5911 24.6966V25.7081C18.5892 25.7895 18.6041 25.8704 18.6348 25.9458C18.6656 26.0212 18.7115 26.0895 18.7698 26.1464C18.8269 26.2043 18.8952 26.25 18.9705 26.2808C19.0459 26.3115 19.1267 26.3266 19.2081 26.3251H20.4892C20.6444 26.3229 20.7928 26.2613 20.9039 26.1531C20.9627 26.0964 21.0091 26.0282 21.0404 25.9529C21.0717 25.8775 21.0873 25.7964 21.086 25.7148V24.7775C21.299 24.7314 21.5077 24.6671 21.7097 24.5854C21.9106 24.5101 22.1066 24.4223 22.2964 24.3224L23.028 25.0506C23.0835 25.1094 23.1504 25.1562 23.2246 25.1882C23.2988 25.2202 23.3788 25.2367 23.4596 25.2367C23.5404 25.2367 23.6204 25.2202 23.6946 25.1882C23.7688 25.1562 23.8357 25.1094 23.8911 25.0506L24.8014 24.1504C24.9121 24.0313 24.9736 23.8747 24.9736 23.7121C24.9736 23.5495 24.9121 23.393 24.8014 23.2738L24.1271 22.5995C24.245 22.419 24.3487 22.2296 24.4373 22.0331C24.525 21.8342 24.6059 21.6353 24.6733 21.4296H25.6848C25.7649 21.43 25.8444 21.4147 25.9186 21.3844C25.9928 21.3542 26.0603 21.3096 26.1173 21.2532C26.1743 21.1969 26.2196 21.1299 26.2507 21.056C26.2817 20.9821 26.298 20.9029 26.2984 20.8227V19.555C26.2994 19.4747 26.284 19.3951 26.2533 19.3209C26.2226 19.2467 26.1772 19.1796 26.1197 19.1235C26.0639 19.0645 25.9964 19.0179 25.9215 18.9865C25.8466 18.9552 25.766 18.9398 25.6848 18.9414H24.7542C24.703 18.7319 24.6388 18.5259 24.5621 18.3244C24.4873 18.1255 24.3995 17.9318 24.2991 17.7445L25.024 17.0061C25.0842 16.9526 25.132 16.8865 25.1641 16.8126C25.1961 16.7386 25.2116 16.6585 25.2094 16.5779C25.2102 16.4966 25.1941 16.4159 25.1622 16.3411C25.1302 16.2662 25.0832 16.1988 25.024 16.143L24.1238 15.2428V15.2293ZM19.997 16.615C20.4533 16.6121 20.9055 16.7027 21.3254 16.8814C22.1454 17.2234 22.7973 17.8753 23.1393 18.6953C23.3151 19.1161 23.4056 19.5676 23.4056 20.0237C23.4056 20.4797 23.3151 20.9312 23.1393 21.352C22.9679 21.757 22.7207 22.1255 22.411 22.4377C22.0983 22.7467 21.7299 22.9937 21.3254 23.1659C20.4745 23.5166 19.5195 23.5166 18.6686 23.1659C17.8499 22.8232 17.1993 22.1714 16.8581 21.352C16.5074 20.5012 16.5074 19.5461 16.8581 18.6953C17.0303 18.2907 17.2774 17.9224 17.5863 17.6096C17.8985 17.3 18.267 17.0528 18.672 16.8814C19.092 16.7031 19.5441 16.6124 20.0004 16.615H19.997ZM11.5985 28.9953C11.1433 28.4154 10.6814 27.8254 10.2263 27.1342C9.72584 26.3777 9.30122 25.5736 8.95856 24.7337C8.5994 23.8485 8.33165 22.9289 8.1595 21.9893C7.99119 21.0541 7.93573 20.1022 7.9943 19.1538C8.0597 18.1695 8.24539 17.1968 8.54723 16.2576C8.87507 15.2426 9.31615 14.2677 9.86213 13.3514L9.91945 13.2671C10.6108 12.2184 11.4669 11.2882 12.4549 10.5125C13.4299 9.74771 14.5262 9.15168 15.6983 8.74921L15.7859 8.72224C16.6693 8.42467 17.5849 8.23339 18.5135 8.15245C19.4926 8.06985 20.478 8.10039 21.4501 8.24348C22.3987 8.38502 23.3291 8.6292 24.2249 8.97174C25.1196 9.31428 25.9733 9.7553 26.7704 10.2866C27.8084 10.9787 28.7321 11.8284 29.5081 12.8052C30.2647 13.7581 30.8552 14.8318 31.2546 15.9812C31.4815 16.64 31.6529 17.3167 31.7671 18.0041C31.8903 18.7357 31.9411 19.4776 31.9188 20.2192C31.8952 21.0494 31.7822 21.8745 31.5816 22.6804C31.3757 23.5094 31.0877 24.3158 30.7219 25.0877C29.9464 26.7499 28.6214 28.3918 27.3099 30.0068C26.6356 30.8328 25.9849 31.6454 25.4252 32.4377C25.3069 32.6067 25.1416 32.7373 24.9499 32.8134C24.7581 32.8895 24.5483 32.9078 24.3463 32.8659L14.5688 33.7762C14.3265 33.7901 14.0867 33.7204 13.8897 33.5786C13.6926 33.4368 13.5503 33.2316 13.4865 32.9974C13.2712 32.2191 12.9915 31.4602 12.6504 30.7283C12.3647 30.1137 12.0119 29.5325 11.5985 28.9953ZM11.9896 25.9609C12.3874 26.5645 12.8257 27.1309 13.2607 27.6838C13.7683 28.3485 14.2003 29.0677 14.5486 29.8281C14.8145 30.3987 15.0475 30.9841 15.2465 31.5813L24.0294 30.7654C24.5385 30.0911 25.1015 29.3797 25.6713 28.6717C26.8985 27.1545 28.1528 25.6069 28.8203 24.1774C29.1274 23.5291 29.368 22.8513 29.5385 22.1545C29.7022 21.4919 29.7948 20.8138 29.8149 20.1315C29.8274 19.5209 29.7845 18.9104 29.6868 18.3075C29.5889 17.7348 29.4446 17.1711 29.2553 16.6218C28.9337 15.6979 28.4584 14.835 27.8493 14.0695C27.2097 13.2642 26.4474 12.5645 25.5904 11.996C24.9268 11.5542 24.2154 11.1889 23.4697 10.907C22.7179 10.6177 21.9367 10.4119 21.1399 10.2934C20.3296 10.1743 19.5083 10.1494 18.6922 10.2192C17.9351 10.2826 17.1882 10.4354 16.467 10.6744L16.3827 10.7081C15.4314 11.0328 14.5413 11.5149 13.7495 12.1342C12.9504 12.7647 12.2553 13.5167 11.6895 14.3628V14.3831C11.2235 15.1608 10.8469 15.9887 10.5668 16.851C10.3154 17.6358 10.1636 18.4491 10.115 19.2718C10.0682 20.0613 10.1158 20.8536 10.2566 21.6319C10.4003 22.4264 10.6263 23.2038 10.9309 23.9515C11.2179 24.6602 11.576 25.338 11.9997 25.9744L11.9896 25.9609ZM20.7219 1.24416C20.7486 0.889214 20.9146 0.559247 21.1837 0.326196C21.4527 0.0931453 21.803 -0.0240877 22.1582 5.69185e-05C22.1895 -0.00345036 22.2212 -0.00345036 22.2526 5.69185e-05C22.5808 0.0425439 22.8814 0.206064 23.0954 0.458587C23.3299 0.723364 23.451 1.06965 23.4326 1.42285C23.4345 1.44529 23.4345 1.46784 23.4326 1.49028L23.1764 4.38306C23.178 4.41339 23.178 4.44377 23.1764 4.4741C23.1302 4.80118 22.9674 5.10055 22.7178 5.31698C22.4499 5.54416 22.104 5.65787 21.7536 5.63391H21.6592C21.3321 5.58777 21.0327 5.42491 20.8163 5.17538C20.5891 4.90749 20.4754 4.56154 20.4994 4.21112C20.4974 4.18756 20.4974 4.16387 20.4994 4.14031L20.7253 1.26101L20.7219 1.24416ZM5.63422 5.46196C5.38643 5.2047 5.25082 4.85965 5.25714 4.50252C5.26346 4.1454 5.4112 3.80536 5.66793 3.55704C5.9246 3.30984 6.26867 3.17428 6.62497 3.17997C6.98127 3.18566 7.32084 3.33213 7.56948 3.58738L9.61601 5.71145C9.86217 5.97038 9.99764 6.3151 9.99362 6.67234C9.9886 6.93859 9.90486 7.19739 9.75297 7.41612C9.60108 7.63484 9.38784 7.80371 9.14012 7.90143C8.89241 7.99914 8.62131 8.02134 8.36099 7.96521C8.10068 7.90908 7.86281 7.77714 7.67737 7.58603L5.63422 5.46196ZM1.29841 20.0742C0.948301 20.0612 0.616987 19.9125 0.374609 19.6595C0.251844 19.5313 0.155591 19.3802 0.09137 19.2147C0.0271493 19.0492 -0.00377597 18.8727 0.000367546 18.6953C0.0100823 18.3387 0.160628 18.0006 0.41906 17.7548C0.677493 17.509 1.02277 17.3756 1.37933 17.3837L4.32606 17.4444C4.68317 17.4533 5.02219 17.6034 5.26871 17.862C5.51523 18.1205 5.64911 18.4663 5.64096 18.8234V18.8436V18.8942C5.61538 19.2265 5.46765 19.5376 5.22626 19.7674C4.96765 20.0133 4.62212 20.1467 4.26537 20.1383H4.21143L1.30178 20.0742H1.29841ZM38.5978 17.94H38.6416C38.9781 17.9317 39.305 18.0523 39.5553 18.2772C39.6875 18.397 39.7946 18.5418 39.8704 18.7033C39.9462 18.8647 39.9892 19.0396 39.997 19.2179C39.9987 19.2324 39.9987 19.2471 39.997 19.2617C40.0023 19.5976 39.8821 19.9234 39.6598 20.1754C39.5408 20.3068 39.3971 20.4134 39.2369 20.4892C39.0766 20.565 38.903 20.6084 38.7259 20.6171L35.7826 20.7654C35.4259 20.7819 35.0773 20.6563 34.8131 20.4161C34.5489 20.1759 34.3907 19.8408 34.3733 19.4842C34.3568 19.1276 34.4824 18.7789 34.7225 18.5147C34.9627 18.2505 35.2978 18.0924 35.6544 18.0749C36.6389 18.021 37.6268 17.9636 38.6079 17.9232L38.5978 17.94ZM33.4461 5.91037C33.6616 5.62723 33.9802 5.4407 34.3326 5.39144C34.685 5.34219 35.0425 5.43418 35.3274 5.64739C35.4698 5.75232 35.5895 5.88496 35.6793 6.03735C35.7691 6.18973 35.8272 6.35871 35.85 6.53411C35.8766 6.71127 35.8677 6.89196 35.8237 7.06563C35.7797 7.23929 35.7015 7.40245 35.5938 7.54557L33.8237 9.90565C33.7172 10.0476 33.5838 10.1671 33.4311 10.2573C33.2783 10.3476 33.1093 10.4068 32.9336 10.4316C32.758 10.4564 32.5793 10.4462 32.4076 10.4018C32.236 10.3574 32.0748 10.2796 31.9332 10.1728C31.7917 10.066 31.6726 9.93235 31.5827 9.77949C31.4929 9.62662 31.4341 9.45754 31.4097 9.28192C31.3835 9.10453 31.393 8.92371 31.4376 8.75004C31.4822 8.57637 31.5609 8.41333 31.6693 8.27046L33.4427 5.91037H33.4461ZM25.2397 34.2313L25.2195 34.7775V34.9697C25.229 35.3289 25.2133 35.6883 25.1723 36.0452L24.9667 36.8207L14.7711 37.7715L14.616 37.3568L14.3126 35.7384L14.3328 35.2698L25.2397 34.2583V34.2313Z" fill="#01452C"/>
</g>
<defs>
<clipPath id="clip0_571_655">
<rect width="40" height="41.4295" fill="white"/>
</clipPath>
</defs>
</svg>
