<svg width="40" height="27" viewBox="0 0 40 27" fill="none" xmlns="http://www.w3.org/2000/svg">
<g clip-path="url(#clip0_571_650)">
<path d="M19.7201 17.2233L24.3685 9.1862L27.5293 17.181L25.9798 19.0885C25.6543 19.3164 25.0228 20.3418 24.4499 21.6927H6.25651V20.127L8.20964 20.0326L10.1302 15.2995L11.1068 18.6882H13.9974L16.5169 12.2005L19.7135 17.2363L19.7201 17.2233ZM3.52214 0H30.7682C31.7013 0.00343045 32.5952 0.375613 33.255 1.0354C33.9148 1.69519 34.2869 2.58906 34.2904 3.52214V8.94531L32.4805 11.0677L32.0866 11.5527V3.83464C32.0799 3.49139 31.9406 3.16406 31.6978 2.9213C31.4551 2.67854 31.1278 2.53922 30.7845 2.53255H3.83464C3.49139 2.53922 3.16406 2.67854 2.9213 2.9213C2.67854 3.16406 2.53922 3.49139 2.53255 3.83464V22.9134C2.53922 23.2567 2.67854 23.584 2.9213 23.8267C3.16406 24.0695 3.49139 24.2088 3.83464 24.2155H23.4798C23.3097 24.9902 23.2008 25.7772 23.1543 26.569L23.1315 26.735H3.52214C2.59131 26.7316 1.69938 26.3612 1.03996 25.7043C0.380543 25.0473 0.00685077 24.1567 0 23.2259L0 3.52214C0.00343045 2.58906 0.375613 1.69519 1.0354 1.0354C1.69519 0.375613 2.58906 0.00343045 3.52214 0ZM31.748 25.6706L26.7871 26.8457L27.3438 21.5072L31.748 25.6706ZM28.8672 19.8568L35.3776 12.6432C35.4183 12.5958 35.468 12.5569 35.5239 12.529C35.5798 12.501 35.6408 12.4845 35.7031 12.4805C35.7848 12.4774 35.8658 12.4965 35.9375 12.5358L39.8665 16.1165C39.9443 16.1907 39.9899 16.2924 39.9935 16.3997C39.9971 16.4608 39.9866 16.522 39.9629 16.5784C39.9392 16.6348 39.9029 16.6851 39.8568 16.7253L33.2682 24.0137L28.8607 19.8568H28.8672ZM9.93815 7.24935C10.3978 7.24935 10.8472 7.38566 11.2294 7.64105C11.6116 7.89644 11.9095 8.25943 12.0854 8.68413C12.2614 9.10882 12.3074 9.57615 12.2177 10.027C12.128 10.4779 11.9067 10.892 11.5816 11.217C11.2566 11.5421 10.8424 11.7634 10.3916 11.8531C9.94073 11.9428 9.47341 11.8968 9.04871 11.7209C8.62402 11.545 8.26102 11.2471 8.00563 10.8648C7.75025 10.4826 7.61393 10.0333 7.61393 9.57357C7.61393 8.95715 7.85881 8.36597 8.29468 7.9301C8.73056 7.49422 9.32173 7.24935 9.93815 7.24935Z" fill="#01452C"/>
</g>
<defs>
<clipPath id="clip0_571_650">
<rect width="40" height="26.8457" fill="white"/>
</clipPath>
</defs>
</svg>
