<svg width="40" height="40" viewBox="0 0 40 40" fill="none" xmlns="http://www.w3.org/2000/svg">
<path d="M11.6664 23.3333C10.9389 23.3343 10.2203 23.4942 9.56095 23.8016C8.90158 24.109 8.31723 24.5567 7.8487 25.1132C7.38018 25.6698 7.03875 26.3219 6.84826 27.0241C6.65777 27.7262 6.6228 28.4615 6.7458 29.1785C6.86879 29.8956 7.14678 30.5772 7.56038 31.1757C7.97397 31.7742 8.51319 32.2753 9.14041 32.6439C9.76764 33.0125 10.4677 33.2398 11.1919 33.31C11.916 33.3801 12.6467 33.2913 13.333 33.0499" stroke="#01452C" stroke-width="1.5" stroke-linecap="round" stroke-linejoin="round"/>
<path d="M7.10685 26.0083C6.10945 25.5281 5.24732 24.8071 4.59827 23.9104C3.94921 23.0137 3.53366 21.9695 3.38911 20.872C3.24457 19.7745 3.37558 18.6583 3.77033 17.6242C4.16507 16.59 4.81113 15.6703 5.65018 14.9483M5.70018 14.8133C5.15359 13.9954 4.91402 13.0104 5.02388 12.0329C5.13375 11.0553 5.58596 10.1481 6.30047 9.47188C7.01498 8.79569 7.9457 8.39412 8.92786 8.33825C9.91002 8.28239 10.8803 8.57583 11.6668 9.16664M12.0635 9.27497C11.7976 8.71004 11.6621 8.09259 11.667 7.46824C11.6718 6.8439 11.8169 6.22862 12.0916 5.6679C12.3662 5.10718 12.7633 4.61535 13.2536 4.22876C13.7439 3.84217 14.3148 3.5707 14.9241 3.43443C15.5334 3.29816 16.1656 3.30057 16.7738 3.44148C17.3821 3.58238 17.9509 3.85818 18.4382 4.2485C18.9256 4.63881 19.3189 5.13365 19.5893 5.69645C19.8597 6.25925 20.0001 6.87561 20.0002 7.49997M20.0002 7.49997V33.3333M20.0002 7.49997C20.0003 6.87561 20.1407 6.25925 20.4111 5.69645C20.6814 5.13365 21.0748 4.63881 21.5621 4.2485C22.0494 3.85818 22.6183 3.58238 23.2265 3.44148C23.8348 3.30057 24.4669 3.29816 25.0762 3.43443C25.6855 3.5707 26.2565 3.84217 26.7467 4.22876C27.237 4.61535 27.6342 5.10718 27.9088 5.6679C28.1834 6.22862 28.3285 6.8439 28.3334 7.46824C28.3382 8.09259 28.2027 8.71004 27.9368 9.27497M20.0002 33.3333C20.0002 34.2174 19.649 35.0652 19.0239 35.6903C18.3987 36.3154 17.5509 36.6666 16.6668 36.6666C15.7828 36.6666 14.9349 36.3154 14.3098 35.6903C13.6847 35.0652 13.3335 34.2174 13.3335 33.3333M20.0002 33.3333C20.0002 34.2174 20.3514 35.0652 20.9765 35.6903C21.6016 36.3154 22.4495 36.6666 23.3335 36.6666M20.0002 11.6666C20.0002 12.9927 20.527 14.2645 21.4646 15.2022C22.4023 16.1399 23.6741 16.6666 25.0002 16.6666M34.3502 14.9483C35.0778 15.5734 35.6617 16.3485 36.0615 17.2205C36.4614 18.0925 36.6679 19.0407 36.6668 20C36.6668 21.1716 36.3652 22.2733 35.8335 23.23M34.3002 14.8133C34.8468 13.9954 35.0863 13.0104 34.9765 12.0329C34.8666 11.0553 34.4144 10.1481 33.6999 9.47188C32.9854 8.79569 32.0547 8.39412 31.0725 8.33825C30.0903 8.28239 29.1201 8.57583 28.3335 9.16664M34.1668 34.1666L36.6668 36.6666M26.6668 30.8333C26.6668 31.9384 27.1058 32.9982 27.8872 33.7796C28.6686 34.561 29.7284 35 30.8335 35C31.9386 35 32.9984 34.561 33.7798 33.7796C34.5612 32.9982 35.0002 31.9384 35.0002 30.8333C35.0002 29.7282 34.5612 28.6684 33.7798 27.887C32.9984 27.1056 31.9386 26.6666 30.8335 26.6666C29.7284 26.6666 28.6686 27.1056 27.8872 27.887C27.1058 28.6684 26.6668 29.7282 26.6668 30.8333Z" stroke="#01452C" stroke-width="2" stroke-linecap="round" stroke-linejoin="round"/>
</svg>
