<svg width="40" height="40" viewBox="0 0 40 40" fill="none" xmlns="http://www.w3.org/2000/svg">
<path d="M35.3065 6.66663H4.69482C3.94325 6.66663 3.33398 7.27589 3.33398 8.02746V31.9725C3.33398 32.724 3.94325 33.3333 4.69482 33.3333H35.3065C36.0581 33.3333 36.6673 32.724 36.6673 31.9725V8.02746C36.6673 7.27589 36.0581 6.66663 35.3065 6.66663Z" stroke="#01452C" stroke-width="2"/>
<path d="M13.334 15.79C11.6673 13.3333 8.74898 14.9483 8.95815 17.4733C9.16732 20 12.5007 20 12.7082 22.5266C12.9173 25.0516 10.0007 26.6666 8.33398 24.2091M21.6673 15H18.334V25.8333H21.6673M18.334 20.8333H21.6673" stroke="#01452C" stroke-width="2" stroke-linecap="round" stroke-linejoin="round"/>
<path d="M31.668 17.5C31.668 16.1193 30.5487 15 29.168 15C27.7873 15 26.668 16.1193 26.668 17.5V23.3333C26.668 24.714 27.7873 25.8333 29.168 25.8333C30.5487 25.8333 31.668 24.714 31.668 23.3333V17.5Z" stroke="#01452C" stroke-width="2" stroke-linecap="round" stroke-linejoin="round"/>
</svg>
