<svg width="26" height="26" viewBox="0 0 26 26" fill="none" xmlns="http://www.w3.org/2000/svg">
<path d="M17.6963 21.9731H13.2961C12.4376 21.9739 11.5859 21.8208 10.7814 21.5212L7.35369 20.2481C7.16595 20.1765 7.01409 20.0337 6.93117 19.8507C6.84826 19.6677 6.841 19.4593 6.91099 19.271C6.98098 19.0826 7.12254 18.9296 7.30485 18.8451C7.48716 18.7607 7.69544 18.7517 7.88435 18.8201L11.3116 20.0932C11.9466 20.3291 12.6187 20.4495 13.2961 20.4487H17.6963C17.8877 20.4487 18.0712 20.3726 18.2066 20.2373C18.3419 20.102 18.4179 19.9184 18.4179 19.7271C18.4179 19.5357 18.3419 19.3521 18.2066 19.2168C18.0712 19.0815 17.8877 19.0054 17.6963 19.0054C17.4943 19.0054 17.3005 18.9252 17.1577 18.7823C17.0148 18.6395 16.9346 18.4458 16.9346 18.2437C16.9346 18.0417 17.0148 17.848 17.1577 17.7051C17.3005 17.5623 17.4943 17.482 17.6963 17.482H18.7348C18.9262 17.482 19.1097 17.406 19.245 17.2707C19.3804 17.1353 19.4564 16.9518 19.4564 16.7604C19.4564 16.569 19.3804 16.3855 19.245 16.2502C19.1097 16.1148 18.9262 16.0388 18.7348 16.0388C18.5328 16.0388 18.339 15.9586 18.1962 15.8157C18.0533 15.6729 17.9731 15.4791 17.9731 15.2771C17.9731 15.0751 18.0533 14.8813 18.1962 14.7385C18.339 14.5956 18.5328 14.5154 18.7348 14.5154H19.7728C19.9155 14.5154 20.0551 14.4731 20.1738 14.3938C20.2925 14.3145 20.385 14.2018 20.4396 14.0699C20.4943 13.9381 20.5085 13.7929 20.4807 13.6529C20.4528 13.5129 20.3841 13.3843 20.2831 13.2834C20.2163 13.2161 20.1368 13.1628 20.0492 13.1265C19.9615 13.0903 19.8676 13.0718 19.7728 13.0722C19.5707 13.0722 19.377 12.9919 19.2341 12.8491C19.0913 12.7062 19.011 12.5125 19.011 12.3104C19.011 12.1084 19.0913 11.9147 19.2341 11.7718C19.377 11.629 19.5707 11.5487 19.7728 11.5487H20.8112C20.9538 11.5483 21.093 11.5056 21.2113 11.4261C21.3296 11.3466 21.4217 11.2339 21.476 11.1021C21.5304 10.9704 21.5444 10.8254 21.5165 10.6857C21.4886 10.5459 21.4199 10.4175 21.319 10.3168C21.2526 10.2497 21.1735 10.1965 21.0863 10.1601C20.9991 10.1238 20.9057 10.1051 20.8112 10.105H13.6186C13.486 10.1052 13.3557 10.0708 13.2405 10.0051C13.1254 9.93951 13.0293 9.84497 12.9619 9.73086C12.8944 9.61675 12.8579 9.48701 12.856 9.35447C12.8541 9.22193 12.8867 9.09118 12.9508 8.97514C13.1822 8.50565 13.3398 8.00327 13.418 7.48572C13.5901 6.37514 13.3779 5.37119 12.7873 4.50182C12.7113 4.39354 12.6028 4.31224 12.4775 4.26969C12.3522 4.22714 12.2166 4.22553 12.0904 4.26511C11.9641 4.30469 11.8538 4.38339 11.7752 4.48985C11.6966 4.5963 11.6539 4.72498 11.6533 4.85729C11.6782 7.46643 10.4727 9.3626 8.16721 10.3417C8.07477 10.383 7.97502 10.4055 7.87379 10.4078C7.77256 10.4102 7.67188 10.3923 7.57764 10.3553C7.4834 10.3182 7.39749 10.2628 7.32492 10.1922C7.25236 10.1215 7.19461 10.0372 7.15505 9.94395C7.11548 9.85075 7.0949 9.75059 7.0945 9.64933C7.0941 9.54807 7.11389 9.44775 7.15272 9.35424C7.19155 9.26072 7.24863 9.17588 7.32063 9.10469C7.39263 9.03349 7.4781 8.97737 7.57205 8.93959C8.52267 8.53334 9.21533 7.93666 9.63123 7.15819C9.97045 6.52291 10.139 5.75408 10.1304 4.87303C10.1228 3.91022 10.7164 3.09772 11.6396 2.81029C12.5628 2.52287 13.5089 2.8499 14.0492 3.64615C15.304 5.49256 15.0775 7.40904 14.7337 8.5826H20.8112C21.3178 8.58266 21.8095 8.75404 22.2063 9.06889C22.6031 9.38374 22.8818 9.82354 22.9971 10.3168C23.1124 10.8101 23.0574 11.3279 22.8412 11.786C22.6249 12.2441 22.2601 12.6156 21.806 12.8401C22.0549 13.3722 22.0856 13.9805 21.8916 14.5349C21.6976 15.0894 21.2944 15.5459 20.7681 15.8067C21.017 16.3389 21.0478 16.9474 20.8537 17.502C20.6596 18.0566 20.2561 18.5131 19.7296 18.7739C19.8899 19.116 19.9614 19.493 19.9373 19.8701C19.9133 20.2471 19.7945 20.612 19.592 20.931C19.3895 21.2499 19.1098 21.5126 18.7788 21.6948C18.4478 21.877 18.0762 21.9727 17.6983 21.9731H17.6963Z" fill="black"/>
<path d="M7.8723 20.8452H3.51172C3.3097 20.8452 3.11595 20.765 2.9731 20.6221C2.83025 20.4793 2.75 20.2855 2.75 20.0835V9.64136C2.75 9.43934 2.83025 9.24559 2.9731 9.10274C3.11595 8.95989 3.3097 8.87964 3.51172 8.87964H7.8723C8.07432 8.87964 8.26807 8.95989 8.41092 9.10274C8.55377 9.24559 8.63402 9.43934 8.63402 9.64136V20.0835C8.63402 20.2855 8.55377 20.4793 8.41092 20.6221C8.26807 20.765 8.07432 20.8452 7.8723 20.8452ZM4.27496 19.3218H7.11059V10.4031H4.27344L4.27496 19.3218Z" fill="black"/>
</svg>
