<svg width="56" height="56" viewBox="0 0 56 56" fill="none" xmlns="http://www.w3.org/2000/svg">
<g clip-path="url(#clip0_571_840)">
<path d="M28.0005 0.525879C12.8469 0.525879 0.560547 12.8291 0.560547 27.9995C0.560547 43.1755 12.8469 55.4731 28.0005 55.4731C43.1541 55.4731 55.4405 43.1755 55.4405 27.9995C55.4405 12.8291 43.1541 0.525879 28.0005 0.525879ZM27.9949 51.8163C14.8573 51.8163 4.21175 41.1483 4.21175 27.9995C4.21175 14.8451 14.8629 4.18268 28.0005 4.18268C41.1381 4.18268 51.7893 14.8451 51.7893 27.9995C51.7837 41.1483 41.1325 51.8163 27.9949 51.8163ZM16.7109 33.3979L19.8357 32.3115C20.4685 37.0211 23.2741 39.2891 28.2525 39.1043C32.6877 39.0147 34.9949 37.2955 35.1797 33.9411C35.6333 31.4043 33.0965 29.5955 27.5749 28.5091C20.6925 27.1483 17.4333 24.5667 17.7973 20.7643C18.1557 16.1443 21.3309 13.6971 27.3005 13.4283C33.1861 13.4283 36.6693 15.9203 37.7557 20.8987L34.4965 21.8507C33.4997 18.0483 31.1925 16.1443 27.5693 16.1443C23.3133 16.2339 21.0957 17.7739 20.9165 20.7643C20.8269 23.0267 23.1341 24.6619 27.8437 25.6587C35.2637 27.0195 38.7973 29.8251 38.4389 34.0811C37.9853 38.7907 34.6365 41.2771 28.3925 41.5515C21.6893 41.7307 17.7973 39.0147 16.7109 33.3979ZM26.4717 10.6619H28.9917V44.9619H26.4717V10.6619Z" fill="#01452C"/>
</g>
<defs>
<clipPath id="clip0_571_840">
<rect width="56" height="56" fill="white" transform="translate(0 -0.000488281)"/>
</clipPath>
</defs>
</svg>
