<svg width="31" height="24" viewBox="0 0 31 24" fill="none" xmlns="http://www.w3.org/2000/svg">
<path fill-rule="evenodd" clip-rule="evenodd" d="M30.6855 16.4699C30.4755 15.8232 30.1113 15.2307 29.6046 14.6949C29.0738 14.1349 28.3763 13.7015 27.5113 13.3882C26.6455 13.0774 25.5338 12.9199 24.1638 12.9199H22.3046C22.5263 10.6315 23.3413 8.68404 24.7513 7.07404C26.1588 5.46904 28.1105 4.05654 30.6055 2.84488L29.0921 0.499878C25.8071 1.89904 22.9963 3.94571 20.6613 6.64904C18.3271 9.35488 17.1646 12.0357 17.1646 14.6949C17.1646 17.5515 17.8388 19.7924 19.198 21.4099C20.5571 23.0274 22.5038 23.8332 25.0346 23.8332C26.6405 23.8332 28.0355 23.2974 29.2222 22.2265C30.4072 21.1574 31.0013 19.9049 31.0013 18.4765C31.0013 17.7874 30.8971 17.1165 30.6855 16.4699ZM13.6888 16.4699C13.4771 15.8232 13.1138 15.2307 12.6063 14.6949C12.0771 14.1349 11.3788 13.7015 10.513 13.3882C9.6488 13.0774 8.53714 12.9199 7.16631 12.9199H5.30632C5.52882 10.6315 6.34298 8.68404 7.75215 7.07404C9.16048 5.46904 11.1138 4.05654 13.6071 2.84488L12.0946 0.499878C8.80881 1.89904 5.99964 3.94571 3.66381 6.64904C1.32964 9.35488 0.167969 12.0357 0.167969 14.6949C0.167969 17.5515 0.840465 19.7924 2.20046 21.4099C3.55797 23.0274 5.50466 23.8332 8.03716 23.8332C9.64216 23.8332 11.0388 23.2974 12.2255 22.2265C13.4105 21.1574 14.0038 19.9049 14.0038 18.4765C14.0038 17.7874 13.898 17.1165 13.6888 16.4699Z" fill="white"/>
</svg>
