<svg width="18" height="22" viewBox="0 0 18 22" fill="none" xmlns="http://www.w3.org/2000/svg">
<path d="M14.2235 21.2245C12.7047 20.9191 11.4832 19.3884 11.5837 17.9097C11.6038 17.6124 11.672 17.2627 11.7483 17.066C11.7685 17.0217 11.025 16.5436 8.75509 15.1373C7.09159 14.1088 5.68947 13.2449 5.63723 13.2168C5.54892 13.1686 5.52479 13.1766 5.31187 13.3614C4.50823 14.0566 3.59614 14.3297 2.68426 14.1568C1.21354 13.8759 0 12.4495 0 10.9991C0 9.99052 0.618831 8.91795 1.54288 8.31108C2.7604 7.51562 4.15456 7.63603 5.31166 8.63665C5.49647 8.79335 5.55668 8.82544 5.6129 8.79733C5.68527 8.75706 11.7441 5.0124 11.7603 5.00044C11.7643 4.99646 11.7322 4.86388 11.6879 4.71116C11.3907 3.66649 11.72 2.53351 12.5558 1.69777C13.3313 0.918258 14.3678 0.576747 15.3361 0.77771C16.8146 1.08314 18 2.48526 18 3.92766C18 4.93604 17.3812 6.00882 16.4571 6.61569C15.2356 7.41136 13.8454 7.29074 12.6883 6.29034C12.5035 6.13364 12.4433 6.10154 12.3869 6.12965C12.3145 6.16993 6.25564 9.91459 6.23949 9.92654C6.23551 9.93053 6.27159 10.0631 6.31585 10.2158C6.43647 10.6136 6.43647 11.3851 6.31585 11.7828C6.27159 11.9355 6.23551 12.0681 6.23949 12.0721C6.25564 12.0883 12.3145 15.8287 12.3869 15.869C12.4431 15.8971 12.5033 15.865 12.6883 15.7083C13.4999 15.0051 14.424 14.732 15.3361 14.9208C16.6178 15.186 17.6704 16.2386 17.9356 17.5203C18.1366 18.4886 17.7951 19.5253 17.0155 20.3007C16.2444 21.076 15.1997 21.4215 14.2235 21.2245ZM15.2358 19.955C16.184 19.758 16.7827 18.9143 16.7023 17.8937C16.63 16.9214 15.935 16.2262 14.9627 16.1541C13.7653 16.0616 12.8572 16.8853 12.8572 18.0706C12.8572 19.3563 13.9541 20.2241 15.2358 19.955ZM3.94164 12.795C4.64081 12.5418 5.07063 11.9513 5.13084 11.1556C5.22314 9.97039 4.39559 9.07025 3.21435 9.07025C1.93264 9.07025 1.09292 10.1189 1.32996 11.4247C1.46254 12.148 2.03711 12.7386 2.75222 12.8833C3.07779 12.9477 3.63621 12.9076 3.94164 12.795ZM15.2358 5.81205C16.1198 5.62724 16.7143 4.87185 16.7143 3.92766C16.7143 2.81062 15.9027 1.99901 14.7856 1.99901C13.6686 1.99901 12.857 2.81062 12.857 3.92766C12.8572 5.21336 13.9541 6.08119 15.2358 5.81205Z" fill="black"/>
</svg>
