<svg width="38" height="38" viewBox="0 0 38 38" fill="none" xmlns="http://www.w3.org/2000/svg">
<path d="M37 19C37 22.5601 35.9443 26.0402 33.9665 29.0003C31.9886 31.9603 29.1774 34.2674 25.8883 35.6298C22.5992 36.9922 18.98 37.3487 15.4884 36.6541C11.9967 35.9596 8.78943 34.2453 6.27209 31.7279C3.75474 29.2106 2.04041 26.0033 1.34587 22.5116C0.651339 19.02 1.0078 15.4008 2.37018 12.1117C3.73255 8.82263 6.03966 6.01141 8.99974 4.03355C11.9598 2.05568 15.4399 1 19 1C21.3638 1 23.7044 1.46558 25.8883 2.37017C28.0722 3.27475 30.0565 4.60062 31.7279 6.27208C33.3994 7.94353 34.7252 9.92784 35.6298 12.1117C36.5344 14.2956 37 16.6362 37 19ZM23.6745 25.3228C24.4994 25.323 25.3075 25.0892 26.0049 24.6486C26.7023 24.2079 27.2604 23.5785 27.6144 22.8334C27.9684 22.0882 28.1038 21.258 28.0048 20.439C27.9059 19.62 27.5766 18.8459 27.0553 18.2065C27.9086 16.9636 28.2648 15.4459 28.0538 13.9531C27.8427 12.4604 27.0797 11.101 25.9153 10.1433C24.7509 9.18564 23.2698 8.69931 21.7643 8.78032C20.2589 8.86134 18.8385 9.50381 17.7836 10.5809C17.1346 10.0853 16.3933 9.72395 15.603 9.51809C14.8127 9.31223 13.9893 9.26594 13.1809 9.38193C12.3726 9.49793 11.5954 9.77388 10.8949 10.1937C10.1944 10.6134 9.58458 11.1686 9.10109 11.8268C8.6176 12.4849 8.27014 13.2328 8.079 14.0268C7.88787 14.8208 7.8569 15.6449 7.9879 16.451C8.1189 17.257 8.40925 18.0289 8.84198 18.7215C9.2747 19.4141 9.84113 20.0135 10.5082 20.4846C10.4968 20.6438 10.4854 20.8029 10.4854 20.9621C10.4836 22.2446 10.883 23.4955 11.6277 24.5395C12.3724 25.5836 13.4251 26.3686 14.6382 26.7844C15.8514 27.2002 17.1643 27.2261 18.3929 26.8584C19.6215 26.4907 20.7043 25.7479 21.4896 24.734C22.1528 25.1207 22.9067 25.3224 23.6745 25.3228ZM14.8189 17.77C14.8037 18.0334 14.7116 18.2866 14.554 18.4982C14.3964 18.7097 14.1801 18.8704 13.932 18.9603C13.684 19.0501 13.415 19.0652 13.1584 19.0037C12.9018 18.9422 12.669 18.8067 12.4886 18.6141C12.3083 18.4215 12.1885 18.1802 12.1439 17.9201C12.0994 17.66 12.1322 17.3926 12.2382 17.151C12.3442 16.9094 12.5188 16.7042 12.7402 16.5608C12.9617 16.4174 13.2204 16.3422 13.4843 16.3444C13.6681 16.342 13.8503 16.3779 14.0194 16.4499C14.1885 16.5218 14.3408 16.6283 14.4664 16.7625C14.592 16.8967 14.6882 17.0556 14.7489 17.229C14.8096 17.4025 14.8334 17.5868 14.8189 17.77ZM19.5025 17.77C19.4873 18.0334 19.3952 18.2866 19.2376 18.4982C19.08 18.7097 18.8637 18.8704 18.6156 18.9603C18.3676 19.0501 18.0986 19.0652 17.842 19.0037C17.5854 18.9422 17.3525 18.8067 17.1722 18.6141C16.9919 18.4215 16.8721 18.1802 16.8275 17.9201C16.783 17.66 16.8158 17.3926 16.9218 17.151C17.0278 16.9094 17.2023 16.7042 17.4238 16.5608C17.6453 16.4174 17.904 16.3422 18.1679 16.3444C18.3516 16.342 18.5339 16.3779 18.703 16.4499C18.8721 16.5218 19.0244 16.6283 19.15 16.7625C19.2756 16.8967 19.3718 17.0556 19.4325 17.229C19.4932 17.4025 19.517 17.5868 19.5025 17.77ZM24.1883 17.77C24.1732 18.0334 24.0811 18.2866 23.9235 18.4982C23.7658 18.7097 23.5496 18.8704 23.3015 18.9603C23.0534 19.0501 22.7844 19.0652 22.5279 19.0037C22.2713 18.9422 22.0384 18.8067 21.8581 18.6141C21.6778 18.4215 21.5579 18.1802 21.5134 17.9201C21.4689 17.66 21.5017 17.3926 21.6077 17.151C21.7136 16.9094 21.8882 16.7042 22.1097 16.5608C22.3312 16.4174 22.5899 16.3422 22.8537 16.3444C23.0375 16.342 23.2198 16.3779 23.3889 16.4499C23.558 16.5218 23.7102 16.6283 23.8358 16.7625C23.9615 16.8967 24.0577 17.0556 24.1184 17.229C24.1791 17.4025 24.2029 17.5868 24.1883 17.77ZM30.3134 26.9053C30.3134 26.5338 30.2032 26.1707 29.9969 25.8619C29.7905 25.5531 29.4972 25.3124 29.1541 25.1702C28.8109 25.0281 28.4333 24.9909 28.069 25.0634C27.7047 25.1358 27.3701 25.3147 27.1075 25.5773C26.8448 25.84 26.666 26.1746 26.5935 26.5389C26.521 26.9032 26.5582 27.2808 26.7004 27.6239C26.8425 27.9671 27.0832 28.2604 27.392 28.4667C27.7009 28.6731 28.064 28.7832 28.4354 28.7832C28.682 28.7832 28.9262 28.7347 29.1541 28.6403C29.3819 28.5459 29.5889 28.4076 29.7633 28.2332C29.9377 28.0588 30.076 27.8518 30.1704 27.6239C30.2648 27.3961 30.3134 27.1519 30.3134 26.9053Z" fill="#01452C"/>
</svg>
