<svg width="27" height="19" viewBox="0 0 27 19" fill="none" xmlns="http://www.w3.org/2000/svg">
<path d="M26.0025 10.5223L20.9485 18.0975C20.7761 18.3569 20.542 18.5694 20.2674 18.7161C19.9926 18.8627 19.6857 18.939 19.3743 18.9379H0.945323C0.77478 18.9396 0.607082 18.8941 0.460833 18.8063C0.314584 18.7186 0.1955 18.592 0.116792 18.4407C0.0345213 18.2908 -0.00561871 18.1214 0.000633204 17.9505C0.00688511 17.7797 0.0592954 17.6137 0.1523 17.4702L5.49043 9.46892L0.1523 1.46773C0.0592954 1.32423 0.00688511 1.15823 0.000633204 0.987346C-0.00561871 0.816463 0.0345213 0.647076 0.116792 0.497165C0.1955 0.345862 0.314584 0.219317 0.460833 0.131563C0.607082 0.0438161 0.77478 -0.00170568 0.945323 4.88695e-05H19.3743C19.6857 -0.00107155 19.9926 0.0751186 20.2674 0.221787C20.542 0.368458 20.7761 0.581021 20.9485 0.84041L26.0025 8.41551C26.2112 8.72727 26.3226 9.09383 26.3226 9.46892C26.3226 9.84402 26.2112 10.2107 26.0025 10.5223Z" fill="white"/>
</svg>
