<svg width="28" height="30" viewBox="0 0 28 30" fill="none" xmlns="http://www.w3.org/2000/svg">
<path d="M28 13.9001V24.5922C27.9965 26.009 27.4321 27.3667 26.4302 28.3685C25.4284 29.3703 24.0707 29.9347 22.654 29.9382H14.969C14.6853 29.9382 14.4134 29.8256 14.2129 29.625C14.0124 29.4246 13.8997 29.1526 13.8997 28.8691C13.8997 28.5854 14.0124 28.3135 14.2129 28.113C14.4134 27.9124 14.6853 27.7998 14.969 27.7998H22.654C23.5036 27.7963 24.3174 27.4572 24.9182 26.8564C25.519 26.2557 25.8581 25.4418 25.8615 24.5922V24.4051C25.5186 24.5287 25.1569 24.5921 24.7924 24.5922H22.654C21.8032 24.5922 20.9874 24.2543 20.3857 23.6526C19.7842 23.0511 19.4463 22.2352 19.4463 21.3845V16.0385C19.4463 15.1878 19.7842 14.3719 20.3857 13.7704C20.9874 13.1688 21.8032 12.8308 22.654 12.8308H25.8081C25.5401 9.89346 24.1781 7.16406 21.9922 5.18367C19.8063 3.20326 16.9562 2.11647 14.0066 2.13874H13.9933C11.0421 2.11027 8.1885 3.19494 6.00131 5.17653C3.81411 7.15813 2.45394 9.89119 2.19188 12.8308H5.34606C6.19569 12.8344 7.00953 13.1735 7.61031 13.7743C8.2111 14.375 8.55017 15.1889 8.55369 16.0385V21.3845C8.55017 22.2341 8.2111 23.048 7.61031 23.6488C7.00953 24.2495 6.19569 24.5886 5.34606 24.5922H3.20763C2.358 24.5886 1.54417 24.2495 0.943385 23.6488C0.342594 23.048 0.0035182 22.2341 3.56637e-09 21.3845V13.9001C-4.15227e-05 12.0669 0.362562 10.2517 1.06694 8.55916C1.77131 6.86664 2.80353 5.33017 4.10417 4.03823C5.4048 2.74629 6.94816 1.7244 8.64537 1.0314C10.3425 0.338395 12.1601 -0.0120248 13.9933 0.00031491H14.1003C17.7855 0.003853 21.319 1.46943 23.9249 4.07537C26.5309 6.68131 27.9965 10.2147 28 13.9001Z" fill="white"/>
</svg>
