<svg width="38" height="38" viewBox="0 0 38 38" fill="none" xmlns="http://www.w3.org/2000/svg">
<g clip-path="url(#clip0_1243_52)">
<path d="M18.9991 24.3527C18.5388 24.3527 18.166 24.7259 18.166 25.1863C18.166 25.6466 18.5389 26.02 18.9991 26.02C19.4596 26.02 19.8328 25.6466 19.8328 25.1863C19.8328 24.7259 19.4596 24.3527 18.9991 24.3527Z" fill="#01452C"/>
<path d="M37.2245 1.62878H0.77551C0.347196 1.62878 0 1.97598 0 2.40429V27.7988C0 28.2271 0.347196 28.5744 0.77551 28.5744H14.3245L12.968 31.8648H10.4181C9.98989 31.8648 9.64262 32.2121 9.64262 32.6404V35.5957C9.64262 36.024 9.98989 36.3712 10.4181 36.3712H27.582C28.0102 36.3712 28.3575 36.024 28.3575 35.5957V32.6404C28.3575 32.2121 28.0102 31.8648 27.582 31.8648H25.0322L23.6756 28.5744H37.2245C37.6527 28.5744 38 28.2271 38 27.7988V2.40429C38 1.9759 37.6527 1.62878 37.2245 1.62878ZM36.449 3.1798V21.8619H1.55102V3.1798H36.449ZM26.8064 34.8202H11.1936V33.4159H26.8064V34.8202ZM23.3544 31.8648H14.6457L16.0022 28.5744H21.9978L23.3544 31.8648ZM1.55102 27.0233V23.4129H36.449V27.0233H1.55102Z" fill="#01452C"/>
<path d="M25.0653 12.4925C25.0653 12.0643 24.718 11.717 24.2897 11.7171L23.4627 11.7172C23.4159 11.4479 23.3466 11.1863 23.2544 10.9355L23.9695 10.5226C24.3404 10.3083 24.4675 9.83402 24.2532 9.46317C24.0389 9.09232 23.5648 8.96506 23.1938 9.17941L22.4766 9.59369C22.3035 9.3867 22.1122 9.19546 21.9053 9.02221L22.3195 8.3051C22.5338 7.93425 22.4068 7.45987 22.0359 7.24568C21.6651 7.03132 21.1908 7.15843 20.9765 7.52928L20.5635 8.2443C20.3127 8.15209 20.0512 8.08268 19.7818 8.03584V7.20923C19.7818 6.78091 19.4346 6.43372 19.0063 6.43372C19.0044 6.43372 19.0024 6.43403 19.0004 6.43403C18.9985 6.43403 18.9965 6.43372 18.9945 6.43372C18.5663 6.43372 18.219 6.78091 18.219 7.20923V8.03577C17.9497 8.08261 17.6881 8.15194 17.4373 8.24422L17.0243 7.5292C16.8101 7.15835 16.3358 7.03125 15.9649 7.2456C15.5941 7.45979 15.467 7.93417 15.6813 8.30502L16.0956 9.02214C15.8886 9.19539 15.6974 9.38663 15.5242 9.59361L14.807 9.17933C14.4361 8.96498 13.9619 9.09224 13.7477 9.46309C13.5334 9.83394 13.6605 10.3082 14.0313 10.5225L14.7464 10.9354C14.6542 11.1862 14.5849 11.4478 14.5381 11.7171L13.7111 11.717C13.2828 11.717 12.9355 12.0642 12.9355 12.4925C12.9355 12.9208 13.2828 13.268 13.7111 13.268L14.5381 13.2679C14.5848 13.5372 14.6542 13.7987 14.7464 14.0495L14.0313 14.4625C13.6605 14.6768 13.5334 15.151 13.7477 15.5219C13.9619 15.8927 14.4361 16.02 14.807 15.8056L15.5242 15.3913C15.6974 15.5984 15.8886 15.7896 16.0956 15.9628L15.6813 16.68C15.467 17.0508 15.5941 17.5251 15.9649 17.7393C16.3358 17.9537 16.8101 17.8266 17.0243 17.4558L17.4373 16.7407C17.6881 16.8329 17.9497 16.9024 18.219 16.9492V17.7757C18.219 18.204 18.5663 18.5512 18.9945 18.5512C18.9965 18.5512 18.9985 18.5509 19.0004 18.5509C19.0024 18.5509 19.0044 18.5512 19.0063 18.5512C19.4346 18.5512 19.7818 18.204 19.7818 17.7757V16.9492C20.0512 16.9024 20.3127 16.833 20.5635 16.7407L20.9765 17.4558C21.1908 17.8266 21.6651 17.9537 22.0359 17.7393C22.4068 17.5251 22.5338 17.0508 22.3195 16.68L21.9053 15.9628C22.1122 15.7896 22.3035 15.5984 22.4766 15.3913L23.1938 15.8056C23.5648 16.02 24.039 15.8927 24.2532 15.5219C24.4675 15.151 24.3404 14.6768 23.9695 14.4625L23.2544 14.0495C23.3466 13.7987 23.4159 13.5372 23.4627 13.2679L24.2897 13.268C24.718 13.2681 25.0653 12.9209 25.0653 12.4925ZM19.0062 15.4662C19.0043 15.4662 19.0023 15.466 19.0003 15.466C18.9984 15.466 18.9964 15.4662 18.9945 15.4662C17.3549 15.4662 16.0211 14.1323 16.0211 12.4925C16.0211 10.8529 17.3549 9.51893 18.9945 9.51893C18.9964 9.51893 18.9984 9.51908 19.0003 9.51908C19.0023 9.51908 19.0043 9.51893 19.0062 9.51893C20.6457 9.51893 21.9795 10.8529 21.9795 12.4925C21.9795 14.1322 20.6457 15.4662 19.0062 15.4662Z" fill="#01452C"/>
</g>
<defs>
<clipPath id="clip0_1243_52">
<rect width="38" height="38" fill="white"/>
</clipPath>
</defs>
</svg>
